<mxfile host="Electron" modified="2023-12-21T02:09:33.895Z" agent="Mozilla/5.0 (Windows NT 10.0; Win64; x64) AppleWebKit/537.36 (KHTML, like Gecko) draw.io/22.1.11 Chrome/114.0.5735.289 Electron/25.9.8 Safari/537.36" etag="38JHHO_3uA6XmEW_fCGQ" version="22.1.11" type="device">
  <diagram name="Страница — 1" id="XoWZzQ8fywKprHe_SJv4">
    <mxGraphModel dx="712" dy="835" grid="1" gridSize="10" guides="1" tooltips="1" connect="1" arrows="1" fold="1" page="1" pageScale="1" pageWidth="827" pageHeight="1169" math="0" shadow="0">
      <root>
        <mxCell id="0" />
        <mxCell id="1" parent="0" />
        <mxCell id="tPnBYV7bfEvBfZNOpFWB-6" style="edgeStyle=orthogonalEdgeStyle;rounded=0;orthogonalLoop=1;jettySize=auto;html=1;exitX=0.5;exitY=1;exitDx=0;exitDy=0;entryX=0.5;entryY=0;entryDx=0;entryDy=0;" edge="1" parent="1" source="tPnBYV7bfEvBfZNOpFWB-1" target="tPnBYV7bfEvBfZNOpFWB-2">
          <mxGeometry relative="1" as="geometry" />
        </mxCell>
        <mxCell id="tPnBYV7bfEvBfZNOpFWB-1" value="начало&lt;br&gt;selection_sort" style="rounded=1;whiteSpace=wrap;html=1;arcSize=50;" vertex="1" parent="1">
          <mxGeometry x="20" y="10" width="100" height="50" as="geometry" />
        </mxCell>
        <mxCell id="tPnBYV7bfEvBfZNOpFWB-13" style="edgeStyle=orthogonalEdgeStyle;rounded=0;orthogonalLoop=1;jettySize=auto;html=1;exitX=0.5;exitY=1;exitDx=0;exitDy=0;entryX=0.5;entryY=0;entryDx=0;entryDy=0;" edge="1" parent="1" source="tPnBYV7bfEvBfZNOpFWB-2" target="tPnBYV7bfEvBfZNOpFWB-12">
          <mxGeometry relative="1" as="geometry" />
        </mxCell>
        <mxCell id="tPnBYV7bfEvBfZNOpFWB-2" value="j = Length(arr)" style="rounded=0;whiteSpace=wrap;html=1;" vertex="1" parent="1">
          <mxGeometry x="20" y="80" width="100" height="50" as="geometry" />
        </mxCell>
        <mxCell id="tPnBYV7bfEvBfZNOpFWB-3" value="" style="endArrow=none;dashed=1;html=1;rounded=0;exitX=1;exitY=0.5;exitDx=0;exitDy=0;" edge="1" parent="1" source="tPnBYV7bfEvBfZNOpFWB-2">
          <mxGeometry width="50" height="50" relative="1" as="geometry">
            <mxPoint x="220" y="120" as="sourcePoint" />
            <mxPoint x="150" y="105" as="targetPoint" />
          </mxGeometry>
        </mxCell>
        <mxCell id="tPnBYV7bfEvBfZNOpFWB-4" value="" style="strokeWidth=2;html=1;shape=mxgraph.flowchart.annotation_1;align=left;pointerEvents=1;" vertex="1" parent="1">
          <mxGeometry x="150" y="85" width="20" height="40" as="geometry" />
        </mxCell>
        <mxCell id="tPnBYV7bfEvBfZNOpFWB-5" value="Length - длина строки" style="text;html=1;strokeColor=none;fillColor=none;align=center;verticalAlign=middle;whiteSpace=wrap;rounded=0;" vertex="1" parent="1">
          <mxGeometry x="150" y="90" width="90" height="30" as="geometry" />
        </mxCell>
        <mxCell id="tPnBYV7bfEvBfZNOpFWB-18" style="edgeStyle=orthogonalEdgeStyle;rounded=0;orthogonalLoop=1;jettySize=auto;html=1;exitX=0.5;exitY=1;exitDx=0;exitDy=0;entryX=0;entryY=0.5;entryDx=0;entryDy=0;" edge="1" parent="1" source="tPnBYV7bfEvBfZNOpFWB-9" target="tPnBYV7bfEvBfZNOpFWB-16">
          <mxGeometry relative="1" as="geometry" />
        </mxCell>
        <mxCell id="tPnBYV7bfEvBfZNOpFWB-19" style="edgeStyle=orthogonalEdgeStyle;rounded=0;orthogonalLoop=1;jettySize=auto;html=1;exitX=0.5;exitY=1;exitDx=0;exitDy=0;entryX=0;entryY=0.5;entryDx=0;entryDy=0;" edge="1" parent="1" source="tPnBYV7bfEvBfZNOpFWB-9" target="tPnBYV7bfEvBfZNOpFWB-17">
          <mxGeometry relative="1" as="geometry" />
        </mxCell>
        <mxCell id="tPnBYV7bfEvBfZNOpFWB-9" value="Оператор выбора" style="rhombus;whiteSpace=wrap;html=1;" vertex="1" parent="1">
          <mxGeometry x="20" y="220" width="100" height="60" as="geometry" />
        </mxCell>
        <mxCell id="tPnBYV7bfEvBfZNOpFWB-14" style="edgeStyle=orthogonalEdgeStyle;rounded=0;orthogonalLoop=1;jettySize=auto;html=1;exitX=0.5;exitY=1;exitDx=0;exitDy=0;entryX=0.5;entryY=0;entryDx=0;entryDy=0;" edge="1" parent="1" source="tPnBYV7bfEvBfZNOpFWB-12" target="tPnBYV7bfEvBfZNOpFWB-9">
          <mxGeometry relative="1" as="geometry" />
        </mxCell>
        <mxCell id="tPnBYV7bfEvBfZNOpFWB-12" value="Ввод:&lt;br&gt;z" style="shape=parallelogram;perimeter=parallelogramPerimeter;whiteSpace=wrap;html=1;fixedSize=1;" vertex="1" parent="1">
          <mxGeometry x="20" y="150" width="100" height="50" as="geometry" />
        </mxCell>
        <mxCell id="tPnBYV7bfEvBfZNOpFWB-54" style="edgeStyle=orthogonalEdgeStyle;rounded=0;orthogonalLoop=1;jettySize=auto;html=1;exitX=1;exitY=0.5;exitDx=0;exitDy=0;" edge="1" parent="1" source="tPnBYV7bfEvBfZNOpFWB-16">
          <mxGeometry relative="1" as="geometry">
            <mxPoint x="280" y="305" as="targetPoint" />
          </mxGeometry>
        </mxCell>
        <mxCell id="tPnBYV7bfEvBfZNOpFWB-16" value="flag=1" style="rounded=0;whiteSpace=wrap;html=1;" vertex="1" parent="1">
          <mxGeometry x="120" y="280" width="100" height="50" as="geometry" />
        </mxCell>
        <mxCell id="tPnBYV7bfEvBfZNOpFWB-51" style="edgeStyle=orthogonalEdgeStyle;rounded=0;orthogonalLoop=1;jettySize=auto;html=1;exitX=1;exitY=0.5;exitDx=0;exitDy=0;entryX=0.5;entryY=0;entryDx=0;entryDy=0;" edge="1" parent="1" source="tPnBYV7bfEvBfZNOpFWB-17" target="tPnBYV7bfEvBfZNOpFWB-20">
          <mxGeometry relative="1" as="geometry">
            <Array as="points">
              <mxPoint x="280" y="385" />
              <mxPoint x="280" y="20" />
              <mxPoint x="400" y="20" />
            </Array>
          </mxGeometry>
        </mxCell>
        <mxCell id="tPnBYV7bfEvBfZNOpFWB-17" value="flag=2" style="rounded=0;whiteSpace=wrap;html=1;" vertex="1" parent="1">
          <mxGeometry x="120" y="360" width="100" height="50" as="geometry" />
        </mxCell>
        <mxCell id="tPnBYV7bfEvBfZNOpFWB-26" style="edgeStyle=orthogonalEdgeStyle;rounded=0;orthogonalLoop=1;jettySize=auto;html=1;exitX=0.5;exitY=1;exitDx=0;exitDy=0;entryX=0.5;entryY=0;entryDx=0;entryDy=0;" edge="1" parent="1" source="tPnBYV7bfEvBfZNOpFWB-20" target="tPnBYV7bfEvBfZNOpFWB-25">
          <mxGeometry relative="1" as="geometry" />
        </mxCell>
        <mxCell id="tPnBYV7bfEvBfZNOpFWB-49" style="edgeStyle=orthogonalEdgeStyle;rounded=0;orthogonalLoop=1;jettySize=auto;html=1;exitX=1;exitY=0.5;exitDx=0;exitDy=0;entryX=0.5;entryY=0;entryDx=0;entryDy=0;" edge="1" parent="1" source="tPnBYV7bfEvBfZNOpFWB-20" target="tPnBYV7bfEvBfZNOpFWB-48">
          <mxGeometry relative="1" as="geometry" />
        </mxCell>
        <mxCell id="tPnBYV7bfEvBfZNOpFWB-20" value="j &amp;gt; 0" style="rhombus;whiteSpace=wrap;html=1;" vertex="1" parent="1">
          <mxGeometry x="350" y="40" width="100" height="60" as="geometry" />
        </mxCell>
        <mxCell id="tPnBYV7bfEvBfZNOpFWB-21" value="нет" style="text;html=1;strokeColor=none;fillColor=none;align=center;verticalAlign=middle;whiteSpace=wrap;rounded=0;" vertex="1" parent="1">
          <mxGeometry x="427" y="40" width="60" height="30" as="geometry" />
        </mxCell>
        <mxCell id="tPnBYV7bfEvBfZNOpFWB-22" value="да" style="text;html=1;strokeColor=none;fillColor=none;align=center;verticalAlign=middle;whiteSpace=wrap;rounded=0;" vertex="1" parent="1">
          <mxGeometry x="390" y="90" width="60" height="30" as="geometry" />
        </mxCell>
        <mxCell id="tPnBYV7bfEvBfZNOpFWB-28" style="edgeStyle=orthogonalEdgeStyle;rounded=0;orthogonalLoop=1;jettySize=auto;html=1;exitX=0.5;exitY=1;exitDx=0;exitDy=0;" edge="1" parent="1" source="tPnBYV7bfEvBfZNOpFWB-25" target="tPnBYV7bfEvBfZNOpFWB-27">
          <mxGeometry relative="1" as="geometry" />
        </mxCell>
        <mxCell id="tPnBYV7bfEvBfZNOpFWB-25" value="&lt;div&gt;max = arr[0]&lt;/div&gt;&lt;div&gt;&lt;span style=&quot;background-color: initial;&quot;&gt;maxi = 0&lt;/span&gt;&lt;/div&gt;" style="rounded=0;whiteSpace=wrap;html=1;" vertex="1" parent="1">
          <mxGeometry x="350" y="130" width="100" height="50" as="geometry" />
        </mxCell>
        <mxCell id="tPnBYV7bfEvBfZNOpFWB-32" style="edgeStyle=orthogonalEdgeStyle;rounded=0;orthogonalLoop=1;jettySize=auto;html=1;exitX=0.5;exitY=1;exitDx=0;exitDy=0;exitPerimeter=0;entryX=0.5;entryY=0;entryDx=0;entryDy=0;" edge="1" parent="1" source="tPnBYV7bfEvBfZNOpFWB-27" target="tPnBYV7bfEvBfZNOpFWB-29">
          <mxGeometry relative="1" as="geometry" />
        </mxCell>
        <mxCell id="tPnBYV7bfEvBfZNOpFWB-27" value="цикл 1&lt;br&gt;i = j-1" style="strokeWidth=2;html=1;shape=mxgraph.flowchart.loop_limit;whiteSpace=wrap;" vertex="1" parent="1">
          <mxGeometry x="350" y="200" width="100" height="50" as="geometry" />
        </mxCell>
        <mxCell id="tPnBYV7bfEvBfZNOpFWB-35" style="edgeStyle=orthogonalEdgeStyle;rounded=0;orthogonalLoop=1;jettySize=auto;html=1;exitX=1;exitY=0.5;exitDx=0;exitDy=0;" edge="1" parent="1" source="tPnBYV7bfEvBfZNOpFWB-29" target="tPnBYV7bfEvBfZNOpFWB-33">
          <mxGeometry relative="1" as="geometry" />
        </mxCell>
        <mxCell id="tPnBYV7bfEvBfZNOpFWB-36" style="edgeStyle=orthogonalEdgeStyle;rounded=0;orthogonalLoop=1;jettySize=auto;html=1;exitX=0.5;exitY=1;exitDx=0;exitDy=0;entryX=0.5;entryY=0;entryDx=0;entryDy=0;" edge="1" parent="1" source="tPnBYV7bfEvBfZNOpFWB-29" target="tPnBYV7bfEvBfZNOpFWB-34">
          <mxGeometry relative="1" as="geometry" />
        </mxCell>
        <mxCell id="tPnBYV7bfEvBfZNOpFWB-29" value="flag = 1" style="rhombus;whiteSpace=wrap;html=1;" vertex="1" parent="1">
          <mxGeometry x="350" y="270" width="100" height="60" as="geometry" />
        </mxCell>
        <mxCell id="tPnBYV7bfEvBfZNOpFWB-30" value="да" style="text;html=1;strokeColor=none;fillColor=none;align=center;verticalAlign=middle;whiteSpace=wrap;rounded=0;" vertex="1" parent="1">
          <mxGeometry x="423" y="270" width="60" height="30" as="geometry" />
        </mxCell>
        <mxCell id="tPnBYV7bfEvBfZNOpFWB-31" value="нет" style="text;html=1;strokeColor=none;fillColor=none;align=center;verticalAlign=middle;whiteSpace=wrap;rounded=0;" vertex="1" parent="1">
          <mxGeometry x="390" y="320" width="60" height="30" as="geometry" />
        </mxCell>
        <mxCell id="tPnBYV7bfEvBfZNOpFWB-39" style="edgeStyle=orthogonalEdgeStyle;rounded=0;orthogonalLoop=1;jettySize=auto;html=1;exitX=0.5;exitY=1;exitDx=0;exitDy=0;" edge="1" parent="1" source="tPnBYV7bfEvBfZNOpFWB-33">
          <mxGeometry relative="1" as="geometry">
            <mxPoint x="400" y="420" as="targetPoint" />
            <Array as="points">
              <mxPoint x="510" y="420" />
            </Array>
          </mxGeometry>
        </mxCell>
        <mxCell id="tPnBYV7bfEvBfZNOpFWB-33" value="selcomparetor1" style="shape=process;whiteSpace=wrap;html=1;backgroundOutline=1;" vertex="1" parent="1">
          <mxGeometry x="460" y="350" width="100" height="50" as="geometry" />
        </mxCell>
        <mxCell id="tPnBYV7bfEvBfZNOpFWB-42" style="edgeStyle=orthogonalEdgeStyle;rounded=0;orthogonalLoop=1;jettySize=auto;html=1;exitX=0.5;exitY=1;exitDx=0;exitDy=0;entryX=0.5;entryY=0;entryDx=0;entryDy=0;" edge="1" parent="1" source="tPnBYV7bfEvBfZNOpFWB-34" target="tPnBYV7bfEvBfZNOpFWB-41">
          <mxGeometry relative="1" as="geometry" />
        </mxCell>
        <mxCell id="tPnBYV7bfEvBfZNOpFWB-34" value="selcomparetor2" style="shape=process;whiteSpace=wrap;html=1;backgroundOutline=1;" vertex="1" parent="1">
          <mxGeometry x="350" y="350" width="100" height="50" as="geometry" />
        </mxCell>
        <mxCell id="tPnBYV7bfEvBfZNOpFWB-55" style="edgeStyle=orthogonalEdgeStyle;rounded=0;orthogonalLoop=1;jettySize=auto;html=1;exitX=0.5;exitY=1;exitDx=0;exitDy=0;" edge="1" parent="1" source="tPnBYV7bfEvBfZNOpFWB-37">
          <mxGeometry relative="1" as="geometry">
            <mxPoint x="320" y="20" as="targetPoint" />
          </mxGeometry>
        </mxCell>
        <mxCell id="tPnBYV7bfEvBfZNOpFWB-37" value="&lt;div&gt;arr[maxi] = arr[j-1]&lt;/div&gt;&lt;div&gt;&lt;span style=&quot;background-color: initial;&quot;&gt;arr[j-1] = max&lt;/span&gt;&lt;/div&gt;&lt;div&gt;&lt;span style=&quot;background-color: initial;&quot;&gt;j = j - 1&lt;/span&gt;&lt;/div&gt;" style="rounded=0;whiteSpace=wrap;html=1;" vertex="1" parent="1">
          <mxGeometry x="350" y="580" width="100" height="50" as="geometry" />
        </mxCell>
        <mxCell id="tPnBYV7bfEvBfZNOpFWB-41" value="i=i+1" style="rounded=0;whiteSpace=wrap;html=1;" vertex="1" parent="1">
          <mxGeometry x="350" y="440" width="100" height="50" as="geometry" />
        </mxCell>
        <mxCell id="tPnBYV7bfEvBfZNOpFWB-46" style="edgeStyle=orthogonalEdgeStyle;rounded=0;orthogonalLoop=1;jettySize=auto;html=1;exitX=0.5;exitY=0;exitDx=0;exitDy=0;exitPerimeter=0;entryX=0.5;entryY=0;entryDx=0;entryDy=0;" edge="1" parent="1" source="tPnBYV7bfEvBfZNOpFWB-43" target="tPnBYV7bfEvBfZNOpFWB-37">
          <mxGeometry relative="1" as="geometry" />
        </mxCell>
        <mxCell id="tPnBYV7bfEvBfZNOpFWB-43" value="" style="strokeWidth=2;html=1;shape=mxgraph.flowchart.loop_limit;whiteSpace=wrap;rotation=-180;" vertex="1" parent="1">
          <mxGeometry x="350" y="510" width="100" height="50" as="geometry" />
        </mxCell>
        <mxCell id="tPnBYV7bfEvBfZNOpFWB-44" value="цикл 1" style="text;html=1;strokeColor=none;fillColor=none;align=center;verticalAlign=middle;whiteSpace=wrap;rounded=0;" vertex="1" parent="1">
          <mxGeometry x="370" y="520" width="60" height="30" as="geometry" />
        </mxCell>
        <mxCell id="tPnBYV7bfEvBfZNOpFWB-45" style="edgeStyle=orthogonalEdgeStyle;rounded=0;orthogonalLoop=1;jettySize=auto;html=1;exitX=0.5;exitY=1;exitDx=0;exitDy=0;entryX=0.5;entryY=1;entryDx=0;entryDy=0;entryPerimeter=0;" edge="1" parent="1" source="tPnBYV7bfEvBfZNOpFWB-41" target="tPnBYV7bfEvBfZNOpFWB-43">
          <mxGeometry relative="1" as="geometry" />
        </mxCell>
        <mxCell id="tPnBYV7bfEvBfZNOpFWB-48" value="конец" style="rounded=1;whiteSpace=wrap;html=1;arcSize=50;" vertex="1" parent="1">
          <mxGeometry x="460" y="130" width="100" height="50" as="geometry" />
        </mxCell>
      </root>
    </mxGraphModel>
  </diagram>
</mxfile>
